<?xml version="1.0" encoding="utf-8"?>
<!-- Generator: Adobe Illustrator 26.0.3, SVG Export Plug-In . SVG Version: 6.00 Build 0)  -->
<svg version="1.1" id="Capa_1" xmlns="http://www.w3.org/2000/svg" xmlns:xlink="http://www.w3.org/1999/xlink" x="0px" y="0px"
	 viewBox="0 0 180 70" style="enable-background:new 0 0 180 70;" xml:space="preserve">
<style type="text/css">
	.st0{display:none;}
	.st1{display:inline;fill:#1C1C1C;}
</style>
<g class="st0">
	<path class="st1" d="M18.9,31L18.9,31c0-0.9-0.7-1.6-1.6-1.6h-6.9c-0.9,0-1.6,0.7-1.6,1.5V31c0,0.9,0.7,1.5,1.6,1.5h6.1
		c1.6,0,3,0.7,4,1.7c0.1,0.1,0.1,0.2,0.2,0.2c0.8,0.9,1.2,2.1,1.2,3.3c0,2.9-2.4,5.3-5.4,5.3h-5.3c-3,0-5.4-2.4-5.4-5.3h3
		c0,1.3,1.1,2.3,2.3,2.3h5.3c1.3,0,2.4-1,2.4-2.3s-1.1-2.3-2.4-2.3h-6.1c-1.2,0-2.4-0.5-3.2-1.3c-0.2-0.2-0.4-0.4-0.6-0.7
		c-0.5-0.7-0.8-1.6-0.8-2.6v-0.1c0-2.5,2-4.5,4.6-4.5h6.9c2.5,0,4.6,2,4.6,4.5V31L18.9,31L18.9,31z"/>
	<path class="st1" d="M41.3,26.3L41.3,26.3l-6.6,8.4l0,0l-0.4,0.5v7.9h-3v-7.9L31,34.8l0,0l-6.6-8.4h3.8l4.7,6l4.7-6
		C37.5,26.3,41.3,26.3,41.3,26.3z M24.4,43.1L24.4,43.1L24.4,43.1L24.4,43.1z M41.3,43.1L41.3,43.1L41.3,43.1L41.3,43.1z"/>
	<path class="st1" d="M56.8,31L56.8,31c0-0.9-0.7-1.6-1.6-1.6h-6.9c-0.9,0-1.5,0.7-1.5,1.5V31c0,0.9,0.7,1.5,1.5,1.5h6.1
		c1.6,0,3,0.7,4,1.7c0.1,0.1,0.1,0.2,0.2,0.2c0.8,0.9,1.2,2.1,1.2,3.3c0,2.9-2.4,5.3-5.4,5.3h-5.3c-3,0-5.4-2.4-5.4-5.3h3
		c0,1.3,1,2.3,2.3,2.3h5.3c1.3,0,2.3-1,2.3-2.3s-1.1-2.3-2.3-2.3h-6.1c-1.2,0-2.3-0.5-3.2-1.3c-0.2-0.2-0.4-0.4-0.6-0.7
		c-0.5-0.7-0.8-1.6-0.8-2.6v-0.1c0-2.5,2-4.5,4.6-4.5h6.9c2.5,0,4.6,2,4.6,4.5V31L56.8,31L56.8,31z"/>
	<path class="st1" d="M65.2,34.7c0,3,2.4,5.4,5.5,5.4h8.5v3h-8.5c-4.7,0-8.5-3.8-8.5-8.4s3.8-8.4,8.5-8.4h8.5v3h-8.5
		C67.7,29.3,65.2,31.8,65.2,34.7z"/>
	<path class="st1" d="M98.6,34.7c0,4.6-3.8,8.4-8.5,8.4s-8.5-3.8-8.5-8.4s3.8-8.4,8.5-8.4C94.8,26.3,98.6,30.1,98.6,34.7z
		 M95.6,34.7c0-3-2.4-5.4-5.5-5.4s-5.5,2.4-5.5,5.4s2.4,5.4,5.5,5.4S95.6,37.7,95.6,34.7z"/>
	<path class="st1" d="M118,26.3v16.8h-3V32.4l-3,2.3l-2.5,1.9l-2.5-1.9l-3-2.3v10.7h-3V26.3l3,2.3l5.4,4.2l5.4-4.2L118,26.3z"/>
	<path class="st1" d="M135.7,30.9c0,1.8-1.1,3.4-2.7,4.1c-0.4,0.2-0.9,0.3-1.3,0.4c0,0-0.1,0-0.1,0v0h-8.1v7.7h-3V26.3l0,0l0,0h10.7
		c1.3,0,2.4,0.5,3.2,1.3C135.2,28.5,135.7,29.6,135.7,30.9z M132.6,30.9c0-0.5-0.3-0.9-0.5-1.1c-0.2-0.2-0.6-0.4-1.1-0.4h-7.7v3.1
		h7.7c0.2,0,0.4,0,0.6-0.1C132.3,32,132.6,31.5,132.6,30.9z"/>
	<path class="st1" d="M151.1,31L151.1,31c0-0.9-0.7-1.6-1.6-1.6h-6.9c-0.9,0-1.6,0.7-1.6,1.5V31c0,0.9,0.7,1.5,1.6,1.5h6.1
		c1.6,0,3,0.7,4,1.7c0.1,0.1,0.1,0.2,0.2,0.2c0.8,0.9,1.2,2.1,1.2,3.3c0,2.9-2.4,5.3-5.4,5.3h-5.3c-3,0-5.4-2.4-5.4-5.3h3
		c0,1.3,1.1,2.3,2.3,2.3h5.3c1.3,0,2.4-1,2.4-2.3s-1.1-2.3-2.4-2.3h-6.1c-1.2,0-2.4-0.5-3.2-1.3c-0.2-0.2-0.4-0.4-0.6-0.7
		c-0.5-0.7-0.8-1.6-0.8-2.6v-0.1c0-2.5,2.1-4.5,4.6-4.5h6.9c2.5,0,4.6,2,4.6,4.5V31L151.1,31L151.1,31z"/>
	<path class="st1" d="M173.9,43.1h-3.4l-1.6-3l-3.7-7.2l-3.7,7.2l-1.6,3h-3.4l1.5-3l7.1-13.8l7.1,13.8L173.9,43.1z"/>
</g>
<g>
	<path d="M14.4,31.3L14.4,31.3c0-1-0.8-1.8-1.7-1.8H5.4c-0.9,0-1.7,0.7-1.7,1.7v0.1c0,0.9,0.7,1.7,1.7,1.7h6.5
		c1.7,0,3.2,0.7,4.2,1.9c0.1,0.1,0.2,0.2,0.2,0.2c0.8,1,1.3,2.3,1.3,3.6c0,3.2-2.6,5.8-5.8,5.8H6.2c-3.2,0-5.8-2.6-5.8-5.8h3.2
		c0,1.4,1.1,2.5,2.5,2.5h5.7c1.4,0,2.5-1.1,2.5-2.5s-1.1-2.5-2.5-2.5H5.4c-1.3,0-2.5-0.5-3.4-1.4c-0.2-0.2-0.5-0.5-0.6-0.8
		c-0.6-0.8-0.9-1.8-0.9-2.8v-0.1c0-2.7,2.2-4.9,4.9-4.9h7.4c2.7,0,4.9,2.2,4.9,4.9v0.1H14.4z"/>
	<path d="M38.3,26.3L38.3,26.3l-7,9.1l0,0l-0.4,0.5v8.6h-3.3V36l-0.4-0.6l0,0l-7-9.1h4.1l5,6.5l5-6.5H38.3z M20.1,44.5L20.1,44.5
		L20.1,44.5L20.1,44.5z M38.3,44.5L38.3,44.5L38.3,44.5L38.3,44.5z"/>
	<path d="M54.8,31.3L54.8,31.3c0-1-0.8-1.8-1.7-1.8h-7.4c-0.9,0-1.7,0.7-1.7,1.7v0.1c0,0.9,0.7,1.7,1.7,1.7h6.5
		c1.7,0,3.2,0.7,4.2,1.9c0.1,0.1,0.2,0.2,0.2,0.2c0.8,1,1.3,2.3,1.3,3.6c0,3.2-2.6,5.8-5.8,5.8h-5.7c-3.2,0-5.8-2.6-5.8-5.8H44
		c0,1.4,1.1,2.5,2.5,2.5h5.7c1.4,0,2.5-1.1,2.5-2.5s-1.1-2.5-2.5-2.5h-6.5c-1.3,0-2.5-0.5-3.4-1.4c-0.2-0.2-0.5-0.5-0.6-0.8
		c-0.6-0.8-0.9-1.8-0.9-2.8v-0.1c0-2.7,2.2-4.9,4.9-4.9h7.4c2.7,0,4.9,2.2,4.9,4.9v0.1H54.8z"/>
	<path d="M63.7,35.4c0,3.2,2.6,5.9,5.9,5.9h9.1v3.2h-9.1c-5,0-9.1-4.1-9.1-9.1c0-5,4.1-9.1,9.1-9.1h9.1v3.2h-9.1
		C66.4,29.6,63.7,32.2,63.7,35.4z"/>
	<path d="M99.3,35.4c0,5-4.1,9.1-9.1,9.1c-5,0-9.1-4.1-9.1-9.1s4.1-9.1,9.1-9.1C95.3,26.3,99.3,30.4,99.3,35.4z M96.1,35.4
		c0-3.2-2.6-5.9-5.9-5.9s-5.9,2.6-5.9,5.9s2.6,5.9,5.9,5.9S96.1,38.7,96.1,35.4z"/>
	<path d="M121.4,25.7l-0.1,18.9h-4.6V32.9l-3.2,2.5l-2,2.3l-3.3-2.3l-3.2-2.5v11.6h-3.3V26.3l3.3,2.5l5.8,4.5l5.8-4.5L121.4,25.7z"
		/>
	<path d="M138.9,31.2c0,2-1.2,3.7-2.9,4.5c-0.4,0.2-0.9,0.3-1.4,0.4c0,0-0.1,0-0.1,0v0h-8.7v8.4h-3.2V26.3h0v0H134
		c1.4,0,2.6,0.6,3.5,1.4C138.3,28.7,138.9,29.9,138.9,31.2z M135.6,31.2c0-0.6-0.3-1-0.5-1.2c-0.2-0.2-0.6-0.5-1.2-0.5h-8.2v3.4h8.2
		c0.2,0,0.5,0,0.7-0.2C135.3,32.5,135.6,31.9,135.6,31.2z"/>
	<path d="M155.3,31.3L155.3,31.3c0-1-0.8-1.8-1.7-1.8h-7.4c-0.9,0-1.7,0.7-1.7,1.7v0.1c0,0.9,0.7,1.7,1.7,1.7h6.5
		c1.7,0,3.2,0.7,4.2,1.9c0.1,0.1,0.2,0.2,0.2,0.2c0.8,1,1.3,2.3,1.3,3.6c0,3.2-2.6,5.8-5.8,5.8h-5.7c-3.2,0-5.8-2.6-5.8-5.8h3.2
		c0,1.4,1.1,2.5,2.5,2.5h5.7c1.4,0,2.5-1.1,2.5-2.5s-1.1-2.5-2.5-2.5h-6.5c-1.3,0-2.5-0.5-3.4-1.4c-0.2-0.2-0.5-0.5-0.6-0.8
		c-0.6-0.8-0.9-1.8-0.9-2.8v-0.1c0-2.7,2.2-4.9,4.9-4.9h7.4c2.7,0,4.9,2.2,4.9,4.9v0.1H155.3z"/>
	<path d="M180.3,43.9h-3.6l-1.7-3.3l-4-7.8l-4,7.8l-1.7,3.3h-3.6l1.7-3.3l7.6-14.9l7.6,14.9L180.3,43.9z"/>
</g>
<g>
	<path d="M15.7,31.3L15.7,31.3c0-1-0.8-1.8-1.7-1.8H6.7c-0.9,0-1.7,0.7-1.7,1.7v0.1C5,32.3,5.7,33,6.7,33h6.5c1.7,0,3.2,0.7,4.2,1.9
		c0.1,0.1,0.2,0.2,0.2,0.2c0.8,1,1.3,2.3,1.3,3.6c0,3.2-2.6,5.8-5.8,5.8H7.5c-3.2,0-5.8-2.6-5.8-5.8H5c0,1.4,1.1,2.5,2.5,2.5h5.7
		c1.4,0,2.5-1.1,2.5-2.5c0-1.4-1.1-2.5-2.5-2.5H6.7c-1.3,0-2.5-0.5-3.4-1.4c-0.2-0.2-0.5-0.5-0.6-0.8c-0.6-0.8-0.9-1.8-0.9-2.8v-0.1
		c0-2.7,2.2-4.9,4.9-4.9H14c2.7,0,4.9,2.2,4.9,4.9v0.1H15.7z"/>
	<path d="M39.6,26.3L39.6,26.3l-7,9.1l0,0l-0.4,0.5v8.6h-3.3V36l-0.4-0.6l0,0l-7-9.1h4.1l5,6.5l5-6.5H39.6z M21.4,44.5L21.4,44.5
		L21.4,44.5L21.4,44.5z M39.6,44.5L39.6,44.5L39.6,44.5L39.6,44.5z"/>
	<path d="M56.1,31.3L56.1,31.3c0-1-0.8-1.8-1.7-1.8H47c-0.9,0-1.7,0.7-1.7,1.7v0.1c0,0.9,0.7,1.7,1.7,1.7h6.5c1.7,0,3.2,0.7,4.2,1.9
		c0.1,0.1,0.2,0.2,0.2,0.2c0.8,1,1.3,2.3,1.3,3.6c0,3.2-2.6,5.8-5.8,5.8h-5.7c-3.2,0-5.8-2.6-5.8-5.8h3.2c0,1.4,1.1,2.5,2.5,2.5h5.7
		c1.4,0,2.5-1.1,2.5-2.5c0-1.4-1.1-2.5-2.5-2.5H47c-1.3,0-2.5-0.5-3.4-1.4c-0.2-0.2-0.5-0.5-0.6-0.8c-0.6-0.8-0.9-1.8-0.9-2.8v-0.1
		c0-2.7,2.2-4.9,4.9-4.9h7.4c2.7,0,4.9,2.2,4.9,4.9v0.1H56.1z"/>
	<path d="M65,35.4c0,3.2,2.6,5.9,5.9,5.9H80v3.2h-9.1c-5,0-9.1-4.1-9.1-9.1c0-5,4.1-9.1,9.1-9.1H80v3.2h-9.1
		C67.7,29.6,65,32.2,65,35.4z"/>
	<path d="M100.6,35.4c0,5-4.1,9.1-9.1,9.1c-5,0-9.1-4.1-9.1-9.1c0-5,4.1-9.1,9.1-9.1C96.6,26.3,100.6,30.4,100.6,35.4z M97.4,35.4
		c0-3.2-2.6-5.9-5.9-5.9s-5.9,2.6-5.9,5.9c0,3.2,2.6,5.9,5.9,5.9S97.4,38.7,97.4,35.4z"/>
	<path d="M121.3,26.3v18.2h-3.3V32.9l-3.2,2.5l-3.3,2.3l-2-2.3l-3.2-2.5v11.6l-4.6,0l0-18.9l3.3,2.5l7.2,5.2l5.8-4.5L121.3,26.3z"/>
	<path d="M140.2,31.2c0,2-1.2,3.7-2.9,4.5c-0.4,0.2-0.9,0.3-1.4,0.4c0,0-0.1,0-0.1,0v0H127v8.4h-3.2V26.3h0v0h11.5
		c1.4,0,2.6,0.6,3.5,1.4C139.6,28.7,140.2,29.9,140.2,31.2z M136.9,31.2c0-0.6-0.3-1-0.5-1.2c-0.2-0.2-0.6-0.5-1.2-0.5H127v3.4h8.2
		c0.2,0,0.5,0,0.7-0.2C136.6,32.5,136.9,31.9,136.9,31.2z"/>
	<path d="M156.6,31.3L156.6,31.3c0-1-0.8-1.8-1.7-1.8h-7.4c-0.9,0-1.7,0.7-1.7,1.7v0.1c0,0.9,0.7,1.7,1.7,1.7h6.5
		c1.7,0,3.2,0.7,4.2,1.9c0.1,0.1,0.2,0.2,0.2,0.2c0.8,1,1.3,2.3,1.3,3.6c0,3.2-2.6,5.8-5.8,5.8h-5.7c-3.2,0-5.8-2.6-5.8-5.8h3.2
		c0,1.4,1.1,2.5,2.5,2.5h5.7c1.4,0,2.5-1.1,2.5-2.5c0-1.4-1.1-2.5-2.5-2.5h-6.5c-1.3,0-2.5-0.5-3.4-1.4c-0.2-0.2-0.5-0.5-0.6-0.8
		c-0.6-0.8-0.9-1.8-0.9-2.8v-0.1c0-2.7,2.2-4.9,4.9-4.9h7.4c2.7,0,4.9,2.2,4.9,4.9v0.1H156.6z"/>
	<path d="M180.3,43.9h-3.6l-1.7-3.3l-4-7.8l-4,7.8l-1.7,3.3h-3.6l1.7-3.3l7.6-14.9l7.6,14.9L180.3,43.9z"/>
</g>
</svg>
